<svg width="183" height="39" viewBox="0 0 183 39" fill="none" xmlns="http://www.w3.org/2000/svg">
<path d="M1.43027 36.5031V37.1031H2.03027H13.0303C16.2603 37.1031 19.0711 36.4662 21.4396 35.1658C23.8174 33.8659 25.6439 31.9962 26.9102 29.5696C28.1868 27.1427 28.8121 24.2648 28.8121 20.9577C28.8121 17.6605 28.1867 14.7924 26.9097 12.3753C25.6439 9.95993 23.8281 8.10052 21.4706 6.81055C19.1125 5.51012 16.3218 4.87283 13.1212 4.87283H2.03027H1.43027V5.47283V36.5031ZM20.1068 26.3727L20.106 26.3744C19.4911 27.716 18.5814 28.6884 17.374 29.3197C16.1581 29.9505 14.6281 30.2819 12.7575 30.2819H9.19088V11.694H12.7727C14.6439 11.694 16.1742 12.0257 17.3902 12.6569C18.5858 13.2775 19.4907 14.2439 20.106 15.5865L20.1075 15.5896C20.7351 16.9384 21.0666 18.7174 21.0666 20.9577C21.0666 23.2188 20.7349 25.0134 20.1068 26.3727ZM34.1786 36.5031V37.1031H34.7786H55.7483H56.3483V36.5031V31.094V30.494H55.7483H41.9392V24.285H54.6119H55.2119V23.685V18.2759V17.6759H54.6119H41.9392V11.4819H55.6877H56.2877V10.8819V5.47283V4.87283H55.6877H34.7786H34.1786V5.47283V36.5031ZM89.9891 16.9365H90.664L90.5849 16.2662C90.3652 14.4038 89.8609 12.7333 89.0627 11.264C88.2789 9.80255 87.2587 8.56321 86.0029 7.55189C84.751 6.53366 83.3168 5.76241 81.7062 5.236C80.1041 4.70909 78.3737 4.44859 76.5194 4.44859C73.6964 4.44859 71.1375 5.09793 68.8572 6.4069C66.5708 7.70928 64.7669 9.60296 63.4451 12.0681C62.1152 14.5486 61.4648 17.5301 61.4648 20.988C61.4648 24.4348 62.1047 27.4098 63.413 29.8892L63.4139 29.891C64.7254 32.3565 66.5191 34.2555 68.7954 35.5684L68.7964 35.569C71.078 36.8788 73.6576 37.5274 76.5194 37.5274C78.5689 37.5274 80.4255 37.2204 82.0801 36.5946L82.082 36.5939C83.7299 35.9642 85.159 35.1091 86.3608 34.0243L86.361 34.0241C87.5634 32.9377 88.523 31.704 89.2345 30.3235C89.9528 28.9394 90.4042 27.4971 90.5848 25.9992L90.6654 25.3305L89.9918 25.3274L83.3554 25.2971L82.8529 25.2948L82.7625 25.7891C82.6227 26.5532 82.3738 27.2199 82.0221 27.797L82.0186 27.8029C81.6732 28.3846 81.2392 28.8773 80.7148 29.2846C80.1899 29.6824 79.5832 29.9893 78.8889 30.2022L78.8867 30.2029C78.2035 30.4153 77.4511 30.5244 76.6254 30.5244C75.1625 30.5244 73.899 30.1673 72.8139 29.4684C71.736 28.7741 70.8775 27.7371 70.2505 26.3224C69.6367 24.9146 69.3163 23.1439 69.3163 20.988C69.3163 18.8946 69.6361 17.1529 70.2511 15.743L70.2517 15.7417C70.8694 14.3163 71.7243 13.2633 72.8048 12.5491L72.8077 12.5472C73.8893 11.8231 75.1689 11.4516 76.6709 11.4516C77.5025 11.4516 78.2609 11.5697 78.9508 11.7996L78.9531 11.8004C79.6566 12.0318 80.2678 12.3618 80.7931 12.7875C81.3174 13.2123 81.7477 13.7278 82.085 14.3387L82.0869 14.342C82.4197 14.9357 82.6464 15.6256 82.7586 16.4203L82.8315 16.9365H83.3527H89.9891ZM150.786 5.47283V4.87283H150.186H143.656H143.056V5.47283V23.4509L130.484 5.13331L130.305 4.87283H129.99H124.232H123.632V5.47283V36.5031V37.1031H124.232H130.793H131.393V36.5031V18.5673L144.026 36.8443L144.205 37.1031H144.52H150.186H150.786V36.5031V5.47283ZM155.532 10.8819V11.4819H156.132H165.032V36.5031V37.1031H165.632H172.117H172.717V36.5031V11.4819H181.617H182.217V10.8819V5.47283V4.87283H181.617H156.132H155.532V5.47283V10.8819ZM112.451 2.17808L112.296 1.59853L111.716 1.75382L94.0955 6.4753C92.3528 6.94225 91.3187 8.73348 91.7856 10.4761L98.4365 35.2975C98.9034 37.0402 100.695 38.0743 102.437 37.6074L120.117 32.8702L120.696 32.7149L120.541 32.1354L119.141 26.9106L118.986 26.331L118.406 26.4863L105.068 30.0604L103.461 24.0629L115.701 20.7829L116.281 20.6276L116.126 20.0481L114.726 14.8233L114.57 14.2437L113.991 14.399L101.75 17.679L100.147 11.6961L113.427 8.13771L114.006 7.98242L113.851 7.40286L112.451 2.17808Z" fill="#072C51" stroke="#072C51" stroke-width="1.2"/>
</svg>
